# xmcd CD database file
#
# Track frame offsets:
#	150
#	21035
#	45582
#	60697
#	72630
#	89707
#	108537
#	126115
#	142372
#	156902
#	170812
#	185667
#	198275
#	210380
#	224520
#	242057
#	259050
#	270967
#	287560
#	309532
#	325427
#	338055
#
# Disc length: 4674 seconds
#
# Revision: 3
# Processed by: cddbd v1.5PL3 Copyright (c) Steve Scherf et al.
# Submitted via: CDex 1.51
#
DISCID=60124016
DTITLE=Frank Sinatra - The Complete Reprise Studio Recordings - CD20
DYEAR=1995
DGENRE=Jazz
TTITLE0=Monday Morning Quarterback
TTITLE1=Hey Look, No Crying
TTITLE2=To Love A Child
TTITLE3=Love Makes Us Whatever We Want To Be
TTITLE4=Searching
TTITLE5=Here's To The Band
TTITLE6=All The Way Home
TTITLE7=It's Sunday
TTITLE8=L.A. Is My Lady
TTITLE9=Until The Real Thing Comes Along
TTITLE10=After You've Gone
TTITLE11=The Best Of Everything
TTITLE12=It's All Right With Me
TTITLE13=A Hundred Years From Today
TTITLE14=How Do You Keep The Music Playing?
TTITLE15=Teach Me Tonight
TTITLE16=If I Should Lose You
TTITLE17=Stormy Weather
TTITLE18=Mack The Knife
TTITLE19=The Girls I Never Kissed
TTITLE20=Only One To A Customer
TTITLE21=My Foolish Heart
EXTD=YEAR: 1995
EXTT0=
EXTT1=
EXTT2=
EXTT3=
EXTT4=
EXTT5=
EXTT6=
EXTT7=
EXTT8=
EXTT9=
EXTT10=
EXTT11=
EXTT12=
EXTT13=
EXTT14=
EXTT15=
EXTT16=
EXTT17=
EXTT18=
EXTT19=
EXTT20=
EXTT21=
PLAYORDER=
